<svg xmlns="http://www.w3.org/2000/svg" viewBox="520 40 960 960" role="img" aria-label="Solvura-X">
  <title>Solvura-X</title>
  <style>
    .diag{stroke:#002818}.xg{fill:#8A5E1E}.node{fill:#8A5E1E}
    @media (prefers-color-scheme: dark){
      .diag{stroke:#EFE8D6}.xg{fill:#F8B860}.node{fill:#F8B860}
    }
  </style>
  <circle cx="1000" cy="520" r="440" fill="none" stroke="#C8862E" stroke-width="3.5"/>
  <line class="diag" x1="619" y1="740" x2="1381" y2="300" stroke-width="3" stroke-linecap="round"/>
  <circle cx="1274" cy="362" r="42" fill="none" stroke="#C8862E" stroke-width="2"/>
  <circle class="node" cx="1274" cy="362" r="26"/>
  <path class="xg" transform="translate(908.496 618.7) scale(0.266)" d="M 638 -21 C 644 -13 645.83 -7.5 643.5 -4.5 C 641.17 -1.5 637 0 631 0 L 555 0 C 547.67 0 542.33 -2.67 539 -8 L 349 -294 C 345 -300.67 341.5 -304 338.5 -304 C 335.5 -304 331.33 -300 326 -292 L 139 -8 C 137.67 -5.33 135.33 -3.33 132 -2 C 128.67 -0.67 125.33 0 122 0 L 56 0 C 50.67 0 47 -1.5 45 -4.5 C 43 -7.5 45 -13 51 -21 L 280 -366 C 283.33 -370.67 284.83 -374.83 284.5 -378.5 C 284.17 -382.17 282.33 -386.33 279 -391 L 56 -727 C 54 -729.67 53.33 -732.83 54 -736.5 C 54.67 -740.17 57.33 -742 62 -742 L 143 -742 C 148.33 -742 152.17 -741.33 154.5 -740 C 156.83 -738.67 158.67 -736.33 160 -733 L 335 -466 C 338.33 -461.33 341.5 -459 344.5 -459 C 347.5 -459 350.67 -461.33 354 -466 L 529 -733 C 531 -736.33 533.17 -738.67 535.5 -740 C 537.83 -741.33 541 -742 545 -742 L 618 -742 C 622.67 -742 625.17 -740.5 625.5 -737.5 C 625.83 -734.5 625 -731.67 623 -729 L 401 -398 C 398.33 -394 397 -390.5 397 -387.5 C 397 -384.5 398.33 -380.67 401 -376 Z M 638 -21 "/>
</svg>
